<mxfile host="app.diagrams.net" agent="Mozilla/5.0 (X11; Linux x86_64) AppleWebKit/537.36 (KHTML, like Gecko) Chrome/135.0.0.0 Safari/537.36" version="26.2.13">
  <diagram name="Page-1" id="b5b7bab2-c9e2-2cf4-8b2a-24fd1a2a6d21">
    <mxGraphModel dx="2767" dy="2260" grid="1" gridSize="10" guides="1" tooltips="1" connect="1" arrows="1" fold="1" page="1" pageScale="1" pageWidth="827" pageHeight="1169" background="none" math="0" shadow="0">
      <root>
        <mxCell id="0" />
        <mxCell id="1" parent="0" />
        <mxCell id="6e0c8c40b5770093-72" value="" style="shape=folder;fontStyle=1;spacingTop=10;tabWidth=194;tabHeight=22;tabPosition=left;html=1;rounded=0;shadow=0;comic=0;labelBackgroundColor=none;strokeWidth=1;fillColor=none;fontFamily=Verdana;fontSize=10;align=center;" parent="1" vertex="1">
          <mxGeometry x="-190" y="-30" width="1720" height="910" as="geometry" />
        </mxCell>
        <mxCell id="6e0c8c40b5770093-73" value="&lt;font style=&quot;font-size: 22px;&quot;&gt;&amp;lt;&amp;lt;LocalEhp&amp;gt;&amp;gt;&lt;/font&gt;" style="text;html=1;align=left;verticalAlign=top;spacingTop=-4;fontSize=10;fontFamily=Verdana" parent="1" vertex="1">
          <mxGeometry x="-170" y="-30" width="130" height="20" as="geometry" />
        </mxCell>
        <mxCell id="_9nZejQMIYd2BK83hRbQ-14" value="&lt;span style=&quot;font-family: Verdana; font-size: 11px; font-weight: 700; text-wrap-mode: nowrap;&quot;&gt;CLocalEhp&lt;/span&gt;" style="swimlane;fontStyle=0;childLayout=stackLayout;horizontal=1;startSize=26;fillColor=none;horizontalStack=0;resizeParent=1;resizeParentMax=0;resizeLast=0;collapsible=1;marginBottom=0;whiteSpace=wrap;html=1;container=0;" vertex="1" parent="1">
          <mxGeometry x="560" y="20" width="210" height="150" as="geometry" />
        </mxCell>
        <mxCell id="_9nZejQMIYd2BK83hRbQ-23" value="" style="group" vertex="1" connectable="0" parent="1">
          <mxGeometry x="880" y="470" width="240" height="160" as="geometry" />
        </mxCell>
        <mxCell id="_9nZejQMIYd2BK83hRbQ-18" value="&lt;div&gt;data_engine&lt;/div&gt;&lt;div&gt;&lt;br&gt;&lt;/div&gt;&lt;div&gt;&lt;br&gt;&lt;/div&gt;&lt;div&gt;&lt;br&gt;&lt;/div&gt;&lt;div&gt;&lt;br&gt;&lt;/div&gt;&lt;div&gt;&lt;br&gt;&lt;/div&gt;&lt;div&gt;&lt;br&gt;&lt;/div&gt;&lt;div&gt;&lt;br&gt;&lt;/div&gt;&lt;div&gt;&lt;br&gt;&lt;/div&gt;" style="shape=folder;fontStyle=1;spacingTop=10;tabWidth=40;tabHeight=14;tabPosition=left;html=1;whiteSpace=wrap;align=center;" vertex="1" parent="_9nZejQMIYd2BK83hRbQ-23">
          <mxGeometry width="240" height="160" as="geometry" />
        </mxCell>
        <mxCell id="_9nZejQMIYd2BK83hRbQ-19" value="&lt;div style=&quot;white-space-collapse: preserve;&quot; data-line=&quot;true&quot; data-line-index=&quot;0&quot; data-zone-id=&quot;0&quot;&gt;CDataEngine&lt;/div&gt;" style="swimlane;fontStyle=0;childLayout=stackLayout;horizontal=1;startSize=26;fillColor=none;horizontalStack=0;resizeParent=1;resizeParentMax=0;resizeLast=0;collapsible=1;marginBottom=0;whiteSpace=wrap;html=1;" vertex="1" parent="_9nZejQMIYd2BK83hRbQ-23">
          <mxGeometry x="20" y="40" width="200" height="78" as="geometry" />
        </mxCell>
        <mxCell id="_9nZejQMIYd2BK83hRbQ-20" value="+" style="text;strokeColor=none;fillColor=none;align=left;verticalAlign=top;spacingLeft=4;spacingRight=4;overflow=hidden;rotatable=0;points=[[0,0.5],[1,0.5]];portConstraint=eastwest;whiteSpace=wrap;html=1;" vertex="1" parent="_9nZejQMIYd2BK83hRbQ-19">
          <mxGeometry y="26" width="200" height="26" as="geometry" />
        </mxCell>
        <mxCell id="_9nZejQMIYd2BK83hRbQ-21" value="+" style="text;strokeColor=none;fillColor=none;align=left;verticalAlign=top;spacingLeft=4;spacingRight=4;overflow=hidden;rotatable=0;points=[[0,0.5],[1,0.5]];portConstraint=eastwest;whiteSpace=wrap;html=1;" vertex="1" parent="_9nZejQMIYd2BK83hRbQ-19">
          <mxGeometry y="52" width="200" height="26" as="geometry" />
        </mxCell>
        <mxCell id="_9nZejQMIYd2BK83hRbQ-29" value="" style="group" vertex="1" connectable="0" parent="1">
          <mxGeometry y="240" width="240" height="415" as="geometry" />
        </mxCell>
        <mxCell id="_9nZejQMIYd2BK83hRbQ-30" value="&lt;div&gt;navigation&lt;/div&gt;&lt;div&gt;&lt;br&gt;&lt;/div&gt;&lt;div&gt;&lt;br&gt;&lt;/div&gt;&lt;div&gt;&lt;br&gt;&lt;/div&gt;&lt;div&gt;&lt;br&gt;&lt;/div&gt;&lt;div&gt;&lt;br&gt;&lt;/div&gt;&lt;div&gt;&lt;br&gt;&lt;/div&gt;&lt;div&gt;&lt;br&gt;&lt;/div&gt;&lt;div&gt;&lt;br&gt;&lt;/div&gt;" style="shape=folder;fontStyle=1;spacingTop=10;tabWidth=40;tabHeight=14;tabPosition=left;html=1;whiteSpace=wrap;align=center;" vertex="1" parent="_9nZejQMIYd2BK83hRbQ-29">
          <mxGeometry width="240" height="160" as="geometry" />
        </mxCell>
        <mxCell id="_9nZejQMIYd2BK83hRbQ-31" value="&lt;div style=&quot;white-space-collapse: preserve;&quot; data-line=&quot;true&quot; data-line-index=&quot;0&quot; data-zone-id=&quot;0&quot;&gt;CNavigation&lt;/div&gt;" style="swimlane;fontStyle=0;childLayout=stackLayout;horizontal=1;startSize=26;fillColor=none;horizontalStack=0;resizeParent=1;resizeParentMax=0;resizeLast=0;collapsible=1;marginBottom=0;whiteSpace=wrap;html=1;" vertex="1" parent="_9nZejQMIYd2BK83hRbQ-29">
          <mxGeometry x="20" y="40" width="200" height="78" as="geometry" />
        </mxCell>
        <mxCell id="_9nZejQMIYd2BK83hRbQ-32" value="+" style="text;strokeColor=none;fillColor=none;align=left;verticalAlign=top;spacingLeft=4;spacingRight=4;overflow=hidden;rotatable=0;points=[[0,0.5],[1,0.5]];portConstraint=eastwest;whiteSpace=wrap;html=1;" vertex="1" parent="_9nZejQMIYd2BK83hRbQ-31">
          <mxGeometry y="26" width="200" height="26" as="geometry" />
        </mxCell>
        <mxCell id="_9nZejQMIYd2BK83hRbQ-33" value="+" style="text;strokeColor=none;fillColor=none;align=left;verticalAlign=top;spacingLeft=4;spacingRight=4;overflow=hidden;rotatable=0;points=[[0,0.5],[1,0.5]];portConstraint=eastwest;whiteSpace=wrap;html=1;" vertex="1" parent="_9nZejQMIYd2BK83hRbQ-31">
          <mxGeometry y="52" width="200" height="26" as="geometry" />
        </mxCell>
        <mxCell id="_9nZejQMIYd2BK83hRbQ-68" value="Use" style="endArrow=open;endSize=12;dashed=1;html=1;rounded=0;entryX=0;entryY=0.5;entryDx=0;entryDy=0;fontSize=17;" edge="1" parent="_9nZejQMIYd2BK83hRbQ-29" target="_9nZejQMIYd2BK83hRbQ-42">
          <mxGeometry width="160" relative="1" as="geometry">
            <mxPoint x="220" y="80" as="sourcePoint" />
            <mxPoint x="380" y="80" as="targetPoint" />
          </mxGeometry>
        </mxCell>
        <mxCell id="_9nZejQMIYd2BK83hRbQ-69" value="Use" style="endArrow=open;endSize=12;dashed=1;html=1;rounded=0;entryX=0.015;entryY=-0.011;entryDx=0;entryDy=0;entryPerimeter=0;fontSize=19;" edge="1" parent="_9nZejQMIYd2BK83hRbQ-29" target="_9nZejQMIYd2BK83hRbQ-20">
          <mxGeometry width="160" relative="1" as="geometry">
            <mxPoint x="220" y="100" as="sourcePoint" />
            <mxPoint x="380" y="100" as="targetPoint" />
          </mxGeometry>
        </mxCell>
        <mxCell id="_9nZejQMIYd2BK83hRbQ-34" value="" style="group" vertex="1" connectable="0" parent="1">
          <mxGeometry x="1180" y="240" width="240" height="160" as="geometry" />
        </mxCell>
        <mxCell id="_9nZejQMIYd2BK83hRbQ-35" value="&lt;div&gt;output_adapt&lt;/div&gt;&lt;div&gt;&lt;br&gt;&lt;/div&gt;&lt;div&gt;&lt;br&gt;&lt;/div&gt;&lt;div&gt;&lt;br&gt;&lt;/div&gt;&lt;div&gt;&lt;br&gt;&lt;/div&gt;&lt;div&gt;&lt;br&gt;&lt;/div&gt;&lt;div&gt;&lt;br&gt;&lt;/div&gt;&lt;div&gt;&lt;br&gt;&lt;/div&gt;&lt;div&gt;&lt;br&gt;&lt;/div&gt;" style="shape=folder;fontStyle=1;spacingTop=10;tabWidth=40;tabHeight=14;tabPosition=left;html=1;whiteSpace=wrap;align=center;" vertex="1" parent="_9nZejQMIYd2BK83hRbQ-34">
          <mxGeometry width="240" height="160" as="geometry" />
        </mxCell>
        <mxCell id="_9nZejQMIYd2BK83hRbQ-36" value="&lt;div style=&quot;white-space-collapse: preserve;&quot; data-line=&quot;true&quot; data-line-index=&quot;0&quot; data-zone-id=&quot;0&quot;&gt;COutputAdapt&lt;/div&gt;" style="swimlane;fontStyle=0;childLayout=stackLayout;horizontal=1;startSize=26;fillColor=none;horizontalStack=0;resizeParent=1;resizeParentMax=0;resizeLast=0;collapsible=1;marginBottom=0;whiteSpace=wrap;html=1;" vertex="1" parent="_9nZejQMIYd2BK83hRbQ-34">
          <mxGeometry x="20" y="40" width="200" height="78" as="geometry" />
        </mxCell>
        <mxCell id="_9nZejQMIYd2BK83hRbQ-37" value="+" style="text;strokeColor=none;fillColor=none;align=left;verticalAlign=top;spacingLeft=4;spacingRight=4;overflow=hidden;rotatable=0;points=[[0,0.5],[1,0.5]];portConstraint=eastwest;whiteSpace=wrap;html=1;" vertex="1" parent="_9nZejQMIYd2BK83hRbQ-36">
          <mxGeometry y="26" width="200" height="26" as="geometry" />
        </mxCell>
        <mxCell id="_9nZejQMIYd2BK83hRbQ-38" value="+" style="text;strokeColor=none;fillColor=none;align=left;verticalAlign=top;spacingLeft=4;spacingRight=4;overflow=hidden;rotatable=0;points=[[0,0.5],[1,0.5]];portConstraint=eastwest;whiteSpace=wrap;html=1;" vertex="1" parent="_9nZejQMIYd2BK83hRbQ-36">
          <mxGeometry y="52" width="200" height="26" as="geometry" />
        </mxCell>
        <mxCell id="_9nZejQMIYd2BK83hRbQ-39" value="" style="group" vertex="1" connectable="0" parent="1">
          <mxGeometry x="560" y="240" width="240" height="160" as="geometry" />
        </mxCell>
        <mxCell id="_9nZejQMIYd2BK83hRbQ-40" value="&lt;div&gt;path_calc&lt;/div&gt;&lt;div&gt;&lt;br&gt;&lt;/div&gt;&lt;div&gt;&lt;br&gt;&lt;/div&gt;&lt;div&gt;&lt;br&gt;&lt;/div&gt;&lt;div&gt;&lt;br&gt;&lt;/div&gt;&lt;div&gt;&lt;br&gt;&lt;/div&gt;&lt;div&gt;&lt;br&gt;&lt;/div&gt;&lt;div&gt;&lt;br&gt;&lt;/div&gt;&lt;div&gt;&lt;br&gt;&lt;/div&gt;" style="shape=folder;fontStyle=1;spacingTop=10;tabWidth=40;tabHeight=14;tabPosition=left;html=1;whiteSpace=wrap;align=center;" vertex="1" parent="_9nZejQMIYd2BK83hRbQ-39">
          <mxGeometry width="240" height="160" as="geometry" />
        </mxCell>
        <mxCell id="_9nZejQMIYd2BK83hRbQ-41" value="&lt;div style=&quot;white-space-collapse: preserve;&quot; data-line=&quot;true&quot; data-line-index=&quot;0&quot; data-zone-id=&quot;0&quot;&gt;CPathCalc&lt;/div&gt;" style="swimlane;fontStyle=0;childLayout=stackLayout;horizontal=1;startSize=26;fillColor=none;horizontalStack=0;resizeParent=1;resizeParentMax=0;resizeLast=0;collapsible=1;marginBottom=0;whiteSpace=wrap;html=1;" vertex="1" parent="_9nZejQMIYd2BK83hRbQ-39">
          <mxGeometry x="20" y="40" width="200" height="78" as="geometry" />
        </mxCell>
        <mxCell id="_9nZejQMIYd2BK83hRbQ-42" value="+" style="text;strokeColor=none;fillColor=none;align=left;verticalAlign=top;spacingLeft=4;spacingRight=4;overflow=hidden;rotatable=0;points=[[0,0.5],[1,0.5]];portConstraint=eastwest;whiteSpace=wrap;html=1;" vertex="1" parent="_9nZejQMIYd2BK83hRbQ-41">
          <mxGeometry y="26" width="200" height="26" as="geometry" />
        </mxCell>
        <mxCell id="_9nZejQMIYd2BK83hRbQ-43" value="+" style="text;strokeColor=none;fillColor=none;align=left;verticalAlign=top;spacingLeft=4;spacingRight=4;overflow=hidden;rotatable=0;points=[[0,0.5],[1,0.5]];portConstraint=eastwest;whiteSpace=wrap;html=1;" vertex="1" parent="_9nZejQMIYd2BK83hRbQ-41">
          <mxGeometry y="52" width="200" height="26" as="geometry" />
        </mxCell>
        <mxCell id="_9nZejQMIYd2BK83hRbQ-45" value="&lt;div&gt;MetaData&lt;/div&gt;&lt;div&gt;&lt;br&gt;&lt;/div&gt;&lt;div&gt;&lt;br&gt;&lt;/div&gt;&lt;div&gt;&lt;br&gt;&lt;/div&gt;&lt;div&gt;&lt;br&gt;&lt;/div&gt;&lt;div&gt;&lt;br&gt;&lt;/div&gt;&lt;div&gt;&lt;br&gt;&lt;/div&gt;&lt;div&gt;&lt;br&gt;&lt;/div&gt;&lt;div&gt;&lt;br&gt;&lt;/div&gt;" style="shape=folder;fontStyle=1;spacingTop=10;tabWidth=40;tabHeight=14;tabPosition=left;html=1;whiteSpace=wrap;align=center;container=1;" vertex="1" parent="1">
          <mxGeometry x="560" y="950" width="256" height="160" as="geometry" />
        </mxCell>
        <mxCell id="_9nZejQMIYd2BK83hRbQ-55" value="&lt;div style=&quot;white-space-collapse: preserve;&quot; data-line=&quot;true&quot; data-line-index=&quot;0&quot; data-zone-id=&quot;0&quot;&gt;CGetMetaData&lt;/div&gt;" style="swimlane;fontStyle=0;childLayout=stackLayout;horizontal=1;startSize=26;fillColor=none;horizontalStack=0;resizeParent=1;resizeParentMax=0;resizeLast=0;collapsible=1;marginBottom=0;whiteSpace=wrap;html=1;" vertex="1" parent="_9nZejQMIYd2BK83hRbQ-45">
          <mxGeometry x="28" y="41" width="200" height="78" as="geometry" />
        </mxCell>
        <mxCell id="_9nZejQMIYd2BK83hRbQ-57" value="+" style="text;strokeColor=none;fillColor=none;align=left;verticalAlign=top;spacingLeft=4;spacingRight=4;overflow=hidden;rotatable=0;points=[[0,0.5],[1,0.5]];portConstraint=eastwest;whiteSpace=wrap;html=1;" vertex="1" parent="_9nZejQMIYd2BK83hRbQ-55">
          <mxGeometry y="26" width="200" height="26" as="geometry" />
        </mxCell>
        <mxCell id="_9nZejQMIYd2BK83hRbQ-58" value="+" style="text;strokeColor=none;fillColor=none;align=left;verticalAlign=top;spacingLeft=4;spacingRight=4;overflow=hidden;rotatable=0;points=[[0,0.5],[1,0.5]];portConstraint=eastwest;whiteSpace=wrap;html=1;" vertex="1" parent="_9nZejQMIYd2BK83hRbQ-55">
          <mxGeometry y="52" width="200" height="26" as="geometry" />
        </mxCell>
        <mxCell id="_9nZejQMIYd2BK83hRbQ-51" value="" style="endArrow=diamondThin;endFill=1;endSize=24;html=1;rounded=0;entryX=1;entryY=0.5;entryDx=0;entryDy=0;exitX=0.909;exitY=0.019;exitDx=0;exitDy=0;exitPerimeter=0;" edge="1" parent="1" source="_9nZejQMIYd2BK83hRbQ-36">
          <mxGeometry width="160" relative="1" as="geometry">
            <mxPoint x="1280.08" y="212.36000000000013" as="sourcePoint" />
            <mxPoint x="769.9999999999995" y="46" as="targetPoint" />
            <Array as="points">
              <mxPoint x="1382" y="40" />
            </Array>
          </mxGeometry>
        </mxCell>
        <mxCell id="_9nZejQMIYd2BK83hRbQ-24" value="" style="group" vertex="1" connectable="0" parent="1">
          <mxGeometry y="470" width="240" height="160" as="geometry" />
        </mxCell>
        <mxCell id="_9nZejQMIYd2BK83hRbQ-25" value="&lt;div&gt;location&lt;/div&gt;&lt;div&gt;&lt;br&gt;&lt;/div&gt;&lt;div&gt;&lt;br&gt;&lt;/div&gt;&lt;div&gt;&lt;br&gt;&lt;/div&gt;&lt;div&gt;&lt;br&gt;&lt;/div&gt;&lt;div&gt;&lt;br&gt;&lt;/div&gt;&lt;div&gt;&lt;br&gt;&lt;/div&gt;&lt;div&gt;&lt;br&gt;&lt;/div&gt;&lt;div&gt;&lt;br&gt;&lt;/div&gt;" style="shape=folder;fontStyle=1;spacingTop=10;tabWidth=40;tabHeight=14;tabPosition=left;html=1;whiteSpace=wrap;align=center;" vertex="1" parent="_9nZejQMIYd2BK83hRbQ-24">
          <mxGeometry width="240" height="160" as="geometry" />
        </mxCell>
        <mxCell id="_9nZejQMIYd2BK83hRbQ-26" value="&lt;div style=&quot;white-space-collapse: preserve;&quot; data-line=&quot;true&quot; data-line-index=&quot;0&quot; data-zone-id=&quot;0&quot;&gt;CLocation&lt;/div&gt;" style="swimlane;fontStyle=0;childLayout=stackLayout;horizontal=1;startSize=26;fillColor=none;horizontalStack=0;resizeParent=1;resizeParentMax=0;resizeLast=0;collapsible=1;marginBottom=0;whiteSpace=wrap;html=1;" vertex="1" parent="_9nZejQMIYd2BK83hRbQ-24">
          <mxGeometry x="20" y="40" width="200" height="78" as="geometry" />
        </mxCell>
        <mxCell id="_9nZejQMIYd2BK83hRbQ-27" value="+" style="text;strokeColor=none;fillColor=none;align=left;verticalAlign=top;spacingLeft=4;spacingRight=4;overflow=hidden;rotatable=0;points=[[0,0.5],[1,0.5]];portConstraint=eastwest;whiteSpace=wrap;html=1;" vertex="1" parent="_9nZejQMIYd2BK83hRbQ-26">
          <mxGeometry y="26" width="200" height="26" as="geometry" />
        </mxCell>
        <mxCell id="_9nZejQMIYd2BK83hRbQ-28" value="+" style="text;strokeColor=none;fillColor=none;align=left;verticalAlign=top;spacingLeft=4;spacingRight=4;overflow=hidden;rotatable=0;points=[[0,0.5],[1,0.5]];portConstraint=eastwest;whiteSpace=wrap;html=1;" vertex="1" parent="_9nZejQMIYd2BK83hRbQ-26">
          <mxGeometry y="52" width="200" height="26" as="geometry" />
        </mxCell>
        <mxCell id="_9nZejQMIYd2BK83hRbQ-65" value="&lt;font&gt;Use&lt;/font&gt;" style="endArrow=open;endSize=12;dashed=1;html=1;rounded=0;fontSize=17;" edge="1" parent="_9nZejQMIYd2BK83hRbQ-24" target="_9nZejQMIYd2BK83hRbQ-20">
          <mxGeometry width="160" relative="1" as="geometry">
            <mxPoint x="220" y="80" as="sourcePoint" />
            <mxPoint x="380" y="80" as="targetPoint" />
          </mxGeometry>
        </mxCell>
        <mxCell id="_9nZejQMIYd2BK83hRbQ-70" value="" style="endArrow=diamondThin;endFill=1;endSize=24;html=1;rounded=0;entryX=0;entryY=0.5;entryDx=0;entryDy=0;exitX=0;exitY=0;exitDx=0;exitDy=87;exitPerimeter=0;" edge="1" parent="1" source="_9nZejQMIYd2BK83hRbQ-25" target="_9nZejQMIYd2BK83hRbQ-15">
          <mxGeometry width="160" relative="1" as="geometry">
            <mxPoint y="550" as="sourcePoint" />
            <mxPoint y="370" as="targetPoint" />
            <Array as="points">
              <mxPoint x="-120" y="560" />
              <mxPoint x="-120" y="59" />
            </Array>
          </mxGeometry>
        </mxCell>
        <mxCell id="_9nZejQMIYd2BK83hRbQ-15" value="+" style="text;strokeColor=none;fillColor=none;align=left;verticalAlign=top;spacingLeft=4;spacingRight=4;overflow=hidden;rotatable=0;points=[[0,0.5],[1,0.5]];portConstraint=eastwest;whiteSpace=wrap;html=1;" vertex="1" parent="1">
          <mxGeometry x="560" y="46" width="210" height="26" as="geometry" />
        </mxCell>
        <mxCell id="_9nZejQMIYd2BK83hRbQ-16" value="+&lt;div&gt;&lt;br&gt;&lt;/div&gt;" style="text;strokeColor=none;fillColor=none;align=left;verticalAlign=top;spacingLeft=4;spacingRight=4;overflow=hidden;rotatable=0;points=[[0,0.5],[1,0.5]];portConstraint=eastwest;whiteSpace=wrap;html=1;" vertex="1" parent="1">
          <mxGeometry x="560" y="72" width="210" height="26" as="geometry" />
        </mxCell>
        <mxCell id="_9nZejQMIYd2BK83hRbQ-52" value="" style="endArrow=diamondThin;endFill=1;endSize=24;html=1;rounded=0;exitX=0.5;exitY=0;exitDx=0;exitDy=0;" edge="1" parent="1" source="_9nZejQMIYd2BK83hRbQ-31">
          <mxGeometry width="160" relative="1" as="geometry">
            <mxPoint x="225" y="230" as="sourcePoint" />
            <mxPoint x="560" y="120" as="targetPoint" />
            <Array as="points">
              <mxPoint x="125" y="120" />
            </Array>
          </mxGeometry>
        </mxCell>
        <mxCell id="_9nZejQMIYd2BK83hRbQ-61" value="" style="endArrow=diamondThin;endFill=1;endSize=24;html=1;rounded=0;exitX=0.5;exitY=0;exitDx=0;exitDy=0;" edge="1" parent="1" source="_9nZejQMIYd2BK83hRbQ-41">
          <mxGeometry width="160" relative="1" as="geometry">
            <mxPoint x="780" y="280" as="sourcePoint" />
            <mxPoint x="680" y="170" as="targetPoint" />
          </mxGeometry>
        </mxCell>
        <mxCell id="_9nZejQMIYd2BK83hRbQ-77" value="" style="endArrow=diamondThin;endFill=1;endSize=24;html=1;rounded=0;exitX=0.894;exitY=0.018;exitDx=0;exitDy=0;exitPerimeter=0;" edge="1" parent="1" source="_9nZejQMIYd2BK83hRbQ-19">
          <mxGeometry width="160" relative="1" as="geometry">
            <mxPoint x="990" y="520" as="sourcePoint" />
            <mxPoint x="770" y="120" as="targetPoint" />
            <Array as="points">
              <mxPoint x="1080" y="120" />
            </Array>
          </mxGeometry>
        </mxCell>
        <mxCell id="_9nZejQMIYd2BK83hRbQ-64" value="&lt;font style=&quot;font-size: 16px;&quot;&gt;Use&lt;/font&gt;" style="endArrow=open;endSize=12;dashed=1;html=1;rounded=0;entryX=0.608;entryY=1.203;entryDx=0;entryDy=0;entryPerimeter=0;exitX=1;exitY=0;exitDx=0;exitDy=0;" edge="1" parent="1" source="_9nZejQMIYd2BK83hRbQ-26" target="_9nZejQMIYd2BK83hRbQ-43">
          <mxGeometry width="160" relative="1" as="geometry">
            <mxPoint x="570" y="450" as="sourcePoint" />
            <mxPoint x="730" y="450" as="targetPoint" />
          </mxGeometry>
        </mxCell>
        <mxCell id="_9nZejQMIYd2BK83hRbQ-54" value="&lt;font style=&quot;font-size: 15px;&quot;&gt;Use&lt;/font&gt;" style="endArrow=open;endSize=12;dashed=1;html=1;rounded=0;entryX=0.187;entryY=0.02;entryDx=0;entryDy=0;entryPerimeter=0;exitX=0.194;exitY=1.125;exitDx=0;exitDy=0;exitPerimeter=0;" edge="1" parent="1" source="_9nZejQMIYd2BK83hRbQ-33" target="_9nZejQMIYd2BK83hRbQ-26">
          <mxGeometry width="160" relative="1" as="geometry">
            <mxPoint x="90" y="361" as="sourcePoint" />
            <mxPoint x="380" y="320" as="targetPoint" />
          </mxGeometry>
        </mxCell>
        <mxCell id="_9nZejQMIYd2BK83hRbQ-60" value="&lt;font style=&quot;font-size: 15px;&quot;&gt;Use&lt;/font&gt;" style="endArrow=open;endSize=12;dashed=1;html=1;rounded=0;exitX=0.454;exitY=0.024;exitDx=0;exitDy=0;exitPerimeter=0;" edge="1" parent="1" source="_9nZejQMIYd2BK83hRbQ-55">
          <mxGeometry width="160" relative="1" as="geometry">
            <mxPoint x="490" y="920" as="sourcePoint" />
            <mxPoint x="120" y="589" as="targetPoint" />
            <Array as="points">
              <mxPoint x="679" y="720" />
              <mxPoint x="120" y="720" />
            </Array>
          </mxGeometry>
        </mxCell>
        <mxCell id="_9nZejQMIYd2BK83hRbQ-78" value="Use" style="endArrow=open;endSize=12;dashed=1;html=1;rounded=0;entryX=0.522;entryY=1.132;entryDx=0;entryDy=0;entryPerimeter=0;exitX=0.854;exitY=0.024;exitDx=0;exitDy=0;exitPerimeter=0;fontSize=15;" edge="1" parent="1" source="_9nZejQMIYd2BK83hRbQ-55" target="_9nZejQMIYd2BK83hRbQ-21">
          <mxGeometry width="160" relative="1" as="geometry">
            <mxPoint x="690" y="990" as="sourcePoint" />
            <mxPoint x="850" y="990" as="targetPoint" />
            <Array as="points">
              <mxPoint x="760" y="720" />
              <mxPoint x="1004" y="720" />
            </Array>
          </mxGeometry>
        </mxCell>
      </root>
    </mxGraphModel>
  </diagram>
</mxfile>
